%TF.GenerationSoftware,KiCad,Pcbnew,(6.0.6-0)*%
%TF.CreationDate,2022-07-12T12:34:36+02:00*%
%TF.ProjectId,btrfld,62747266-6c64-42e6-9b69-6361645f7063,rev?*%
%TF.SameCoordinates,Original*%
%TF.FileFunction,Copper,L2,Bot*%
%TF.FilePolarity,Positive*%
%FSLAX46Y46*%
G04 Gerber Fmt 4.6, Leading zero omitted, Abs format (unit mm)*
G04 Created by KiCad (PCBNEW (6.0.6-0)) date 2022-07-12 12:34:36*
%MOMM*%
%LPD*%
G01*
G04 APERTURE LIST*
%TA.AperFunction,ComponentPad*%
%ADD10R,1.600000X1.600000*%
%TD*%
%TA.AperFunction,ComponentPad*%
%ADD11C,1.600000*%
%TD*%
%TA.AperFunction,ComponentPad*%
%ADD12R,1.000000X1.000000*%
%TD*%
%TA.AperFunction,ComponentPad*%
%ADD13O,1.000000X1.000000*%
%TD*%
G04 APERTURE END LIST*
D10*
%TO.P,PRO_MICRO1,1,Pin_1*%
%TO.N,/D3*%
X128270000Y-114300000D03*
D11*
%TO.P,PRO_MICRO1,2,Pin_2*%
%TO.N,/D2*%
X130810000Y-114300000D03*
%TO.P,PRO_MICRO1,3,Pin_3*%
%TO.N,unconnected-(PRO_MICRO1-Pad3)*%
X133350000Y-114300000D03*
%TO.P,PRO_MICRO1,4,Pin_4*%
%TO.N,unconnected-(PRO_MICRO1-Pad4)*%
X135890000Y-114300000D03*
%TO.P,PRO_MICRO1,5,Pin_5*%
%TO.N,/D1*%
X138430000Y-114300000D03*
%TO.P,PRO_MICRO1,6,Pin_6*%
%TO.N,/D0*%
X140970000Y-114300000D03*
%TO.P,PRO_MICRO1,7,Pin_7*%
%TO.N,/D4*%
X143510000Y-114300000D03*
%TO.P,PRO_MICRO1,8,Pin_8*%
%TO.N,/C6*%
X146050000Y-114300000D03*
%TO.P,PRO_MICRO1,9,Pin_9*%
%TO.N,/D7*%
X148590000Y-114300000D03*
%TO.P,PRO_MICRO1,10,Pin_10*%
%TO.N,/E6*%
X151130000Y-114300000D03*
%TO.P,PRO_MICRO1,11,Pin_11*%
%TO.N,/B4*%
X153670000Y-114300000D03*
%TO.P,PRO_MICRO1,12,Pin_12*%
%TO.N,/B5*%
X156210000Y-114300000D03*
%TO.P,PRO_MICRO1,13,Pin_13*%
%TO.N,/RAW*%
X156210000Y-99060000D03*
%TO.P,PRO_MICRO1,14,Pin_14*%
%TO.N,GNDREF*%
X153670000Y-99060000D03*
%TO.P,PRO_MICRO1,15,Pin_15*%
%TO.N,/RES*%
X151130000Y-99060000D03*
%TO.P,PRO_MICRO1,16,Pin_16*%
%TO.N,/VCC*%
X148590000Y-99060000D03*
%TO.P,PRO_MICRO1,17,Pin_17*%
%TO.N,/F4*%
X146050000Y-99060000D03*
%TO.P,PRO_MICRO1,18,Pin_18*%
%TO.N,/F5*%
X143510000Y-99060000D03*
%TO.P,PRO_MICRO1,19,Pin_19*%
%TO.N,/F6*%
X140970000Y-99060000D03*
%TO.P,PRO_MICRO1,20,Pin_20*%
%TO.N,/F7*%
X138430000Y-99060000D03*
%TO.P,PRO_MICRO1,21,Pin_21*%
%TO.N,/B1*%
X135890000Y-99060000D03*
%TO.P,PRO_MICRO1,22,Pin_22*%
%TO.N,/B3*%
X133350000Y-99060000D03*
%TO.P,PRO_MICRO1,23,Pin_23*%
%TO.N,/B2*%
X130810000Y-99060000D03*
%TO.P,PRO_MICRO1,24,Pin_24*%
%TO.N,/B6*%
X128270000Y-99060000D03*
%TD*%
D12*
%TO.P,R_THUMB1,1,Pin_1*%
%TO.N,/B6*%
X200660000Y-134620000D03*
D13*
%TO.P,R_THUMB1,2,Pin_2*%
%TO.N,/B2*%
X200660000Y-135890000D03*
%TO.P,R_THUMB1,3,Pin_3*%
%TO.N,/B3*%
X200660000Y-137160000D03*
%TO.P,R_THUMB1,4,Pin_4*%
%TO.N,/B1*%
X200660000Y-138430000D03*
%TO.P,R_THUMB1,5,Pin_5*%
%TO.N,/F7*%
X200660000Y-139700000D03*
%TO.P,R_THUMB1,6,Pin_6*%
%TO.N,/F5*%
X200660000Y-140970000D03*
%TD*%
D12*
%TO.P,R_BODY1,1,Pin_1*%
%TO.N,/D3*%
X223520000Y-93335000D03*
D13*
%TO.P,R_BODY1,2,Pin_2*%
%TO.N,/D2*%
X223520000Y-94605000D03*
%TO.P,R_BODY1,3,Pin_3*%
%TO.N,/D1*%
X223520000Y-95875000D03*
%TO.P,R_BODY1,4,Pin_4*%
%TO.N,/D0*%
X223520000Y-97145000D03*
%TO.P,R_BODY1,5,Pin_5*%
%TO.N,/B6*%
X223520000Y-98415000D03*
%TO.P,R_BODY1,6,Pin_6*%
%TO.N,/B2*%
X223520000Y-99685000D03*
%TO.P,R_BODY1,7,Pin_7*%
%TO.N,/B3*%
X223520000Y-100955000D03*
%TO.P,R_BODY1,8,Pin_8*%
%TO.N,/B1*%
X223520000Y-102225000D03*
%TO.P,R_BODY1,9,Pin_9*%
%TO.N,/F7*%
X223520000Y-103495000D03*
%TO.P,R_BODY1,10,Pin_10*%
%TO.N,/F6*%
X223520000Y-104765000D03*
%TD*%
D12*
%TO.P,L_THUMB1,1,Pin_1*%
%TO.N,/D4*%
X76200000Y-127000000D03*
D13*
%TO.P,L_THUMB1,2,Pin_2*%
%TO.N,/C6*%
X76200000Y-128270000D03*
%TO.P,L_THUMB1,3,Pin_3*%
%TO.N,/D7*%
X76200000Y-129540000D03*
%TO.P,L_THUMB1,4,Pin_4*%
%TO.N,/E6*%
X76200000Y-130810000D03*
%TO.P,L_THUMB1,5,Pin_5*%
%TO.N,/B4*%
X76200000Y-132080000D03*
%TO.P,L_THUMB1,6,Pin_6*%
%TO.N,/F5*%
X76200000Y-133350000D03*
%TD*%
D12*
%TO.P,L_BODY1,1,Pin_1*%
%TO.N,/D3*%
X72000000Y-86275000D03*
D13*
%TO.P,L_BODY1,2,Pin_2*%
%TO.N,/D2*%
X72000000Y-87545000D03*
%TO.P,L_BODY1,3,Pin_3*%
%TO.N,/D1*%
X72000000Y-88815000D03*
%TO.P,L_BODY1,4,Pin_4*%
%TO.N,/D0*%
X72000000Y-90085000D03*
%TO.P,L_BODY1,5,Pin_5*%
%TO.N,/D4*%
X72000000Y-91355000D03*
%TO.P,L_BODY1,6,Pin_6*%
%TO.N,/C6*%
X72000000Y-92625000D03*
%TO.P,L_BODY1,7,Pin_7*%
%TO.N,/D7*%
X72000000Y-93895000D03*
%TO.P,L_BODY1,8,Pin_8*%
%TO.N,/E6*%
X72000000Y-95165000D03*
%TO.P,L_BODY1,9,Pin_9*%
%TO.N,/B4*%
X72000000Y-96435000D03*
%TO.P,L_BODY1,10,Pin_10*%
%TO.N,/B5*%
X72000000Y-97705000D03*
%TD*%
M02*
