%TF.GenerationSoftware,KiCad,Pcbnew,(6.0.6-0)*%
%TF.CreationDate,2022-07-12T12:34:36+02:00*%
%TF.ProjectId,btrfld,62747266-6c64-42e6-9b69-6361645f7063,rev?*%
%TF.SameCoordinates,Original*%
%TF.FileFunction,Soldermask,Bot*%
%TF.FilePolarity,Negative*%
%FSLAX46Y46*%
G04 Gerber Fmt 4.6, Leading zero omitted, Abs format (unit mm)*
G04 Created by KiCad (PCBNEW (6.0.6-0)) date 2022-07-12 12:34:36*
%MOMM*%
%LPD*%
G01*
G04 APERTURE LIST*
%ADD10R,1.600000X1.600000*%
%ADD11C,1.600000*%
%ADD12R,1.000000X1.000000*%
%ADD13O,1.000000X1.000000*%
G04 APERTURE END LIST*
D10*
%TO.C,PRO_MICRO1*%
X128270000Y-114300000D03*
D11*
X130810000Y-114300000D03*
X133350000Y-114300000D03*
X135890000Y-114300000D03*
X138430000Y-114300000D03*
X140970000Y-114300000D03*
X143510000Y-114300000D03*
X146050000Y-114300000D03*
X148590000Y-114300000D03*
X151130000Y-114300000D03*
X153670000Y-114300000D03*
X156210000Y-114300000D03*
X156210000Y-99060000D03*
X153670000Y-99060000D03*
X151130000Y-99060000D03*
X148590000Y-99060000D03*
X146050000Y-99060000D03*
X143510000Y-99060000D03*
X140970000Y-99060000D03*
X138430000Y-99060000D03*
X135890000Y-99060000D03*
X133350000Y-99060000D03*
X130810000Y-99060000D03*
X128270000Y-99060000D03*
%TD*%
D12*
%TO.C,R_THUMB1*%
X200660000Y-134620000D03*
D13*
X200660000Y-135890000D03*
X200660000Y-137160000D03*
X200660000Y-138430000D03*
X200660000Y-139700000D03*
X200660000Y-140970000D03*
%TD*%
D12*
%TO.C,R_BODY1*%
X223520000Y-93335000D03*
D13*
X223520000Y-94605000D03*
X223520000Y-95875000D03*
X223520000Y-97145000D03*
X223520000Y-98415000D03*
X223520000Y-99685000D03*
X223520000Y-100955000D03*
X223520000Y-102225000D03*
X223520000Y-103495000D03*
X223520000Y-104765000D03*
%TD*%
D12*
%TO.C,L_THUMB1*%
X76200000Y-127000000D03*
D13*
X76200000Y-128270000D03*
X76200000Y-129540000D03*
X76200000Y-130810000D03*
X76200000Y-132080000D03*
X76200000Y-133350000D03*
%TD*%
D12*
%TO.C,L_BODY1*%
X72000000Y-86275000D03*
D13*
X72000000Y-87545000D03*
X72000000Y-88815000D03*
X72000000Y-90085000D03*
X72000000Y-91355000D03*
X72000000Y-92625000D03*
X72000000Y-93895000D03*
X72000000Y-95165000D03*
X72000000Y-96435000D03*
X72000000Y-97705000D03*
%TD*%
M02*
