%TF.GenerationSoftware,KiCad,Pcbnew,(6.0.6-0)*%
%TF.CreationDate,2022-07-12T12:34:36+02:00*%
%TF.ProjectId,btrfld,62747266-6c64-42e6-9b69-6361645f7063,rev?*%
%TF.SameCoordinates,Original*%
%TF.FileFunction,Legend,Top*%
%TF.FilePolarity,Positive*%
%FSLAX46Y46*%
G04 Gerber Fmt 4.6, Leading zero omitted, Abs format (unit mm)*
G04 Created by KiCad (PCBNEW (6.0.6-0)) date 2022-07-12 12:34:36*
%MOMM*%
%LPD*%
G01*
G04 APERTURE LIST*
%ADD10C,0.150000*%
%ADD11C,0.120000*%
G04 APERTURE END LIST*
D10*
%TO.C,R_THUMB1*%
X197612380Y-133377380D02*
X197279047Y-132901190D01*
X197040952Y-133377380D02*
X197040952Y-132377380D01*
X197421904Y-132377380D01*
X197517142Y-132425000D01*
X197564761Y-132472619D01*
X197612380Y-132567857D01*
X197612380Y-132710714D01*
X197564761Y-132805952D01*
X197517142Y-132853571D01*
X197421904Y-132901190D01*
X197040952Y-132901190D01*
X197802857Y-133472619D02*
X198564761Y-133472619D01*
X198660000Y-132377380D02*
X199231428Y-132377380D01*
X198945714Y-133377380D02*
X198945714Y-132377380D01*
X199564761Y-133377380D02*
X199564761Y-132377380D01*
X199564761Y-132853571D02*
X200136190Y-132853571D01*
X200136190Y-133377380D02*
X200136190Y-132377380D01*
X200612380Y-132377380D02*
X200612380Y-133186904D01*
X200660000Y-133282142D01*
X200707619Y-133329761D01*
X200802857Y-133377380D01*
X200993333Y-133377380D01*
X201088571Y-133329761D01*
X201136190Y-133282142D01*
X201183809Y-133186904D01*
X201183809Y-132377380D01*
X201660000Y-133377380D02*
X201660000Y-132377380D01*
X201993333Y-133091666D01*
X202326666Y-132377380D01*
X202326666Y-133377380D01*
X203136190Y-132853571D02*
X203279047Y-132901190D01*
X203326666Y-132948809D01*
X203374285Y-133044047D01*
X203374285Y-133186904D01*
X203326666Y-133282142D01*
X203279047Y-133329761D01*
X203183809Y-133377380D01*
X202802857Y-133377380D01*
X202802857Y-132377380D01*
X203136190Y-132377380D01*
X203231428Y-132425000D01*
X203279047Y-132472619D01*
X203326666Y-132567857D01*
X203326666Y-132663095D01*
X203279047Y-132758333D01*
X203231428Y-132805952D01*
X203136190Y-132853571D01*
X202802857Y-132853571D01*
X204326666Y-133377380D02*
X203755238Y-133377380D01*
X204040952Y-133377380D02*
X204040952Y-132377380D01*
X203945714Y-132520238D01*
X203850476Y-132615476D01*
X203755238Y-132663095D01*
%TO.C,R_BODY1*%
X221020000Y-92092380D02*
X220686666Y-91616190D01*
X220448571Y-92092380D02*
X220448571Y-91092380D01*
X220829523Y-91092380D01*
X220924761Y-91140000D01*
X220972380Y-91187619D01*
X221020000Y-91282857D01*
X221020000Y-91425714D01*
X220972380Y-91520952D01*
X220924761Y-91568571D01*
X220829523Y-91616190D01*
X220448571Y-91616190D01*
X221210476Y-92187619D02*
X221972380Y-92187619D01*
X222543809Y-91568571D02*
X222686666Y-91616190D01*
X222734285Y-91663809D01*
X222781904Y-91759047D01*
X222781904Y-91901904D01*
X222734285Y-91997142D01*
X222686666Y-92044761D01*
X222591428Y-92092380D01*
X222210476Y-92092380D01*
X222210476Y-91092380D01*
X222543809Y-91092380D01*
X222639047Y-91140000D01*
X222686666Y-91187619D01*
X222734285Y-91282857D01*
X222734285Y-91378095D01*
X222686666Y-91473333D01*
X222639047Y-91520952D01*
X222543809Y-91568571D01*
X222210476Y-91568571D01*
X223400952Y-91092380D02*
X223591428Y-91092380D01*
X223686666Y-91140000D01*
X223781904Y-91235238D01*
X223829523Y-91425714D01*
X223829523Y-91759047D01*
X223781904Y-91949523D01*
X223686666Y-92044761D01*
X223591428Y-92092380D01*
X223400952Y-92092380D01*
X223305714Y-92044761D01*
X223210476Y-91949523D01*
X223162857Y-91759047D01*
X223162857Y-91425714D01*
X223210476Y-91235238D01*
X223305714Y-91140000D01*
X223400952Y-91092380D01*
X224258095Y-92092380D02*
X224258095Y-91092380D01*
X224496190Y-91092380D01*
X224639047Y-91140000D01*
X224734285Y-91235238D01*
X224781904Y-91330476D01*
X224829523Y-91520952D01*
X224829523Y-91663809D01*
X224781904Y-91854285D01*
X224734285Y-91949523D01*
X224639047Y-92044761D01*
X224496190Y-92092380D01*
X224258095Y-92092380D01*
X225448571Y-91616190D02*
X225448571Y-92092380D01*
X225115238Y-91092380D02*
X225448571Y-91616190D01*
X225781904Y-91092380D01*
X226639047Y-92092380D02*
X226067619Y-92092380D01*
X226353333Y-92092380D02*
X226353333Y-91092380D01*
X226258095Y-91235238D01*
X226162857Y-91330476D01*
X226067619Y-91378095D01*
%TO.C,L_THUMB1*%
X73152380Y-125757380D02*
X72676190Y-125757380D01*
X72676190Y-124757380D01*
X73247619Y-125852619D02*
X74009523Y-125852619D01*
X74104761Y-124757380D02*
X74676190Y-124757380D01*
X74390476Y-125757380D02*
X74390476Y-124757380D01*
X75009523Y-125757380D02*
X75009523Y-124757380D01*
X75009523Y-125233571D02*
X75580952Y-125233571D01*
X75580952Y-125757380D02*
X75580952Y-124757380D01*
X76057142Y-124757380D02*
X76057142Y-125566904D01*
X76104761Y-125662142D01*
X76152380Y-125709761D01*
X76247619Y-125757380D01*
X76438095Y-125757380D01*
X76533333Y-125709761D01*
X76580952Y-125662142D01*
X76628571Y-125566904D01*
X76628571Y-124757380D01*
X77104761Y-125757380D02*
X77104761Y-124757380D01*
X77438095Y-125471666D01*
X77771428Y-124757380D01*
X77771428Y-125757380D01*
X78580952Y-125233571D02*
X78723809Y-125281190D01*
X78771428Y-125328809D01*
X78819047Y-125424047D01*
X78819047Y-125566904D01*
X78771428Y-125662142D01*
X78723809Y-125709761D01*
X78628571Y-125757380D01*
X78247619Y-125757380D01*
X78247619Y-124757380D01*
X78580952Y-124757380D01*
X78676190Y-124805000D01*
X78723809Y-124852619D01*
X78771428Y-124947857D01*
X78771428Y-125043095D01*
X78723809Y-125138333D01*
X78676190Y-125185952D01*
X78580952Y-125233571D01*
X78247619Y-125233571D01*
X79771428Y-125757380D02*
X79200000Y-125757380D01*
X79485714Y-125757380D02*
X79485714Y-124757380D01*
X79390476Y-124900238D01*
X79295238Y-124995476D01*
X79200000Y-125043095D01*
%TO.C,L_BODY1*%
X69500000Y-85032380D02*
X69023809Y-85032380D01*
X69023809Y-84032380D01*
X69595238Y-85127619D02*
X70357142Y-85127619D01*
X70928571Y-84508571D02*
X71071428Y-84556190D01*
X71119047Y-84603809D01*
X71166666Y-84699047D01*
X71166666Y-84841904D01*
X71119047Y-84937142D01*
X71071428Y-84984761D01*
X70976190Y-85032380D01*
X70595238Y-85032380D01*
X70595238Y-84032380D01*
X70928571Y-84032380D01*
X71023809Y-84080000D01*
X71071428Y-84127619D01*
X71119047Y-84222857D01*
X71119047Y-84318095D01*
X71071428Y-84413333D01*
X71023809Y-84460952D01*
X70928571Y-84508571D01*
X70595238Y-84508571D01*
X71785714Y-84032380D02*
X71976190Y-84032380D01*
X72071428Y-84080000D01*
X72166666Y-84175238D01*
X72214285Y-84365714D01*
X72214285Y-84699047D01*
X72166666Y-84889523D01*
X72071428Y-84984761D01*
X71976190Y-85032380D01*
X71785714Y-85032380D01*
X71690476Y-84984761D01*
X71595238Y-84889523D01*
X71547619Y-84699047D01*
X71547619Y-84365714D01*
X71595238Y-84175238D01*
X71690476Y-84080000D01*
X71785714Y-84032380D01*
X72642857Y-85032380D02*
X72642857Y-84032380D01*
X72880952Y-84032380D01*
X73023809Y-84080000D01*
X73119047Y-84175238D01*
X73166666Y-84270476D01*
X73214285Y-84460952D01*
X73214285Y-84603809D01*
X73166666Y-84794285D01*
X73119047Y-84889523D01*
X73023809Y-84984761D01*
X72880952Y-85032380D01*
X72642857Y-85032380D01*
X73833333Y-84556190D02*
X73833333Y-85032380D01*
X73500000Y-84032380D02*
X73833333Y-84556190D01*
X74166666Y-84032380D01*
X75023809Y-85032380D02*
X74452380Y-85032380D01*
X74738095Y-85032380D02*
X74738095Y-84032380D01*
X74642857Y-84175238D01*
X74547619Y-84270476D01*
X74452380Y-84318095D01*
%TO.C,PRO_MICRO1*%
X127000000Y-115570000D02*
X157480000Y-115570000D01*
X127000000Y-115570000D02*
X127000000Y-110490000D01*
X127000000Y-110490000D02*
X124460000Y-110490000D01*
X124460000Y-110490000D02*
X124460000Y-102870000D01*
X124460000Y-102870000D02*
X127000000Y-102870000D01*
X127000000Y-102870000D02*
X127000000Y-97790000D01*
X127000000Y-97790000D02*
X157480000Y-97790000D01*
X157480000Y-97790000D02*
X157480000Y-115570000D01*
D11*
%TO.C,R_THUMB1*%
X199550000Y-133860000D02*
X200660000Y-133860000D01*
X201770000Y-135380000D02*
X201770000Y-141665000D01*
X200967530Y-141665000D02*
X201770000Y-141665000D01*
X199550000Y-135380000D02*
X199550000Y-141665000D01*
X199550000Y-141665000D02*
X200352470Y-141665000D01*
X199550000Y-134620000D02*
X199550000Y-133860000D01*
X199550000Y-135380000D02*
X200096529Y-135380000D01*
X201223471Y-135380000D02*
X201770000Y-135380000D01*
%TO.C,R_BODY1*%
X222410000Y-94095000D02*
X222956529Y-94095000D01*
X224630000Y-94095000D02*
X224630000Y-105460000D01*
X224083471Y-94095000D02*
X224630000Y-94095000D01*
X222410000Y-92575000D02*
X223520000Y-92575000D01*
X222410000Y-105460000D02*
X223212470Y-105460000D01*
X222410000Y-94095000D02*
X222410000Y-105460000D01*
X223827530Y-105460000D02*
X224630000Y-105460000D01*
X222410000Y-93335000D02*
X222410000Y-92575000D01*
%TO.C,L_THUMB1*%
X75090000Y-126240000D02*
X76200000Y-126240000D01*
X77310000Y-127760000D02*
X77310000Y-134045000D01*
X76507530Y-134045000D02*
X77310000Y-134045000D01*
X75090000Y-127760000D02*
X75090000Y-134045000D01*
X75090000Y-134045000D02*
X75892470Y-134045000D01*
X75090000Y-127000000D02*
X75090000Y-126240000D01*
X75090000Y-127760000D02*
X75636529Y-127760000D01*
X76763471Y-127760000D02*
X77310000Y-127760000D01*
%TO.C,L_BODY1*%
X70890000Y-87035000D02*
X71436529Y-87035000D01*
X73110000Y-87035000D02*
X73110000Y-98400000D01*
X72563471Y-87035000D02*
X73110000Y-87035000D01*
X70890000Y-85515000D02*
X72000000Y-85515000D01*
X70890000Y-98400000D02*
X71692470Y-98400000D01*
X70890000Y-87035000D02*
X70890000Y-98400000D01*
X72307530Y-98400000D02*
X73110000Y-98400000D01*
X70890000Y-86275000D02*
X70890000Y-85515000D01*
%TD*%
M02*
